<svg width="54" height="54" viewBox="0 0 54 54" fill="none" xmlns="http://www.w3.org/2000/svg">
<g clip-path="url(#clip0_1714_8190)">
<path d="M52 2H2V52H52V2Z" stroke="#E5261F" stroke-width="4"/>
<path d="M15.6469 42.2738C13.9779 42.2738 12.5437 42.0261 11.3442 41.5306C10.1447 41.0091 9.21895 40.4224 8.56704 39.7704C7.94119 39.0924 7.62827 38.5188 7.62827 38.0494C7.62827 37.8408 7.68043 37.6191 7.78473 37.3844C7.91512 37.1497 8.07158 36.9672 8.25412 36.8368C8.43665 36.6804 8.61919 36.6021 8.80173 36.6021C9.06249 36.6021 9.32326 36.7716 9.58403 37.1106C9.87087 37.4235 10.2359 37.8017 10.6792 38.245C11.1486 38.6622 11.7614 39.0403 12.5177 39.3793C13.2739 39.6922 14.2648 39.8487 15.4904 39.8487C16.716 39.8487 17.7591 39.6531 18.6196 39.2619C19.4801 38.8447 20.1451 38.245 20.6145 37.4627C21.0839 36.6543 21.3185 35.6503 21.3185 34.4508C21.3185 33.1991 21.0839 32.1952 20.6145 31.4389C20.1451 30.6827 19.5192 30.0569 18.7369 29.5614C17.9807 29.066 17.1463 28.6487 16.2336 28.3097C15.3209 27.9707 14.3952 27.6187 13.4564 27.2536C12.5437 26.8886 11.6962 26.4452 10.9139 25.9237C10.1316 25.3761 9.5058 24.672 9.03642 23.8115C8.56704 22.9249 8.33235 21.8036 8.33235 20.4476C8.33235 19.0395 8.59311 17.8791 9.11465 16.9664C9.63618 16.0276 10.3011 15.2975 11.1095 14.7759C11.944 14.2544 12.8436 13.8893 13.8085 13.6807C14.7733 13.446 15.7121 13.3287 16.6247 13.3287C17.3549 13.3287 18.0981 13.3939 18.8543 13.5242C19.6366 13.6286 20.3537 13.785 21.0056 13.9936C21.6575 14.2022 22.1791 14.463 22.5702 14.7759C22.9874 15.0628 23.1961 15.3887 23.1961 15.7538C23.1961 15.9103 23.1439 16.1058 23.0396 16.3405C22.9614 16.5491 22.844 16.7447 22.6876 16.9273C22.5311 17.1098 22.3225 17.2011 22.0617 17.2011C21.827 17.2011 21.5011 17.0837 21.0839 16.849C20.6666 16.5883 20.0929 16.3405 19.3628 16.1058C18.6587 15.8451 17.733 15.7147 16.5856 15.7147C15.6469 15.7147 14.7342 15.8451 13.8476 16.1058C12.987 16.3666 12.283 16.836 11.7354 17.514C11.1877 18.1659 10.9139 19.0655 10.9139 20.2129C10.9139 21.256 11.1486 22.1035 11.618 22.7554C12.1135 23.3812 12.7393 23.8897 13.4955 24.2809C14.2778 24.672 15.1253 25.0371 16.038 25.3761C16.9507 25.689 17.8634 26.0541 18.7761 26.4713C19.7148 26.8625 20.5623 27.371 21.3185 27.9968C22.1008 28.5966 22.7267 29.3919 23.1961 30.3828C23.6654 31.3737 23.9001 32.6515 23.9001 34.2161C23.9001 36.0676 23.5481 37.593 22.844 38.7926C22.14 39.966 21.1621 40.8396 19.9104 41.4133C18.6848 41.987 17.2636 42.2738 15.6469 42.2738Z" fill="#E5261F"/>
<path d="M43.5805 42.1956C43.2415 42.1956 42.9025 42.0913 42.5635 41.8827C42.2506 41.674 42.0029 41.3742 41.8203 40.983L36.266 30.1873H32.9803V40.3572C32.9803 40.9048 32.7196 41.322 32.198 41.6088C31.6765 41.8696 31.0898 42 30.4378 42C29.812 42 29.2253 41.8696 28.6777 41.6088C28.1561 41.322 27.8954 40.9048 27.8954 40.3572V15.0106C27.8954 14.5673 28.0388 14.1892 28.3256 13.8763C28.6386 13.5634 29.0427 13.4069 29.5382 13.4069H37.283C39.004 13.4069 40.5556 13.6546 41.9377 14.1501C43.3458 14.6455 44.4671 15.493 45.3016 16.6926C46.136 17.866 46.5532 19.4958 46.5532 21.5819C46.5532 23.0944 46.3316 24.3852 45.8883 25.4543C45.445 26.4974 44.8322 27.3449 44.0499 27.9968C43.2937 28.6227 42.4201 29.092 41.4292 29.405L46.5924 38.9099C46.6445 39.0142 46.6836 39.1316 46.7097 39.2619C46.7358 39.3663 46.7488 39.4575 46.7488 39.5358C46.7488 39.953 46.5924 40.3702 46.2794 40.7874C45.9665 41.2047 45.5623 41.5437 45.0669 41.8044C44.5975 42.0652 44.102 42.1956 43.5805 42.1956ZM32.9803 26.1975H37.283C38.5607 26.1975 39.5777 25.8846 40.334 25.2588C41.0902 24.6329 41.4683 23.5638 41.4683 22.0513C41.4683 20.4867 41.0902 19.4045 40.334 18.8048C39.5777 18.1789 38.5607 17.866 37.283 17.866H32.9803V26.1975Z" fill="black"/>
</g>
<defs>
<clipPath id="clip0_1714_8190">
<rect width="54" height="54" fill="white"/>
</clipPath>
</defs>
</svg>
