<svg width="240" height="64" viewBox="0 0 240 64" fill="none" xmlns="http://www.w3.org/2000/svg">
<path d="M30.759 49.1956C30.42 49.1956 30.081 49.0913 29.742 48.8827C29.4291 48.674 29.1814 48.3742 28.9988 47.983L23.4445 37.1873H20.1588V47.3572C20.1588 47.9048 19.8981 48.322 19.3765 48.6088C18.855 48.8696 18.2683 49 17.6163 49C16.9905 49 16.4038 48.8696 15.8562 48.6088C15.3346 48.322 15.0739 47.9048 15.0739 47.3572V22.0106C15.0739 21.5673 15.2173 21.1892 15.5041 20.8763C15.8171 20.5634 16.2212 20.4069 16.7167 20.4069H24.4615C26.1825 20.4069 27.7341 20.6546 29.1162 21.1501C30.5243 21.6455 31.6456 22.493 32.4801 23.6926C33.3145 24.866 33.7317 26.4958 33.7317 28.5819C33.7317 30.0944 33.5101 31.3852 33.0668 32.4543C32.6235 33.4974 32.0107 34.3449 31.2284 34.9968C30.4722 35.6227 29.5986 36.092 28.6077 36.405L33.7709 45.9099C33.823 46.0142 33.8621 46.1316 33.8882 46.2619C33.9143 46.3663 33.9273 46.4575 33.9273 46.5358C33.9273 46.953 33.7709 47.3702 33.4579 47.7874C33.145 48.2047 32.7408 48.5437 32.2454 48.8044C31.776 49.0652 31.2805 49.1956 30.759 49.1956ZM20.1588 33.1975H24.4615C25.7392 33.1975 26.7562 32.8846 27.5125 32.2588C28.2687 31.6329 28.6468 30.5638 28.6468 29.0513C28.6468 27.4867 28.2687 26.4045 27.5125 25.8048C26.7562 25.1789 25.7392 24.866 24.4615 24.866H20.1588V33.1975ZM45.2939 49.352C43.4425 49.352 41.7996 49.0261 40.3654 48.3742C38.9573 47.6962 37.849 46.7574 37.0406 45.5579C36.2323 44.3323 35.8281 42.9241 35.8281 41.3335V38.0087C35.8281 36.6005 36.2062 35.3097 36.9624 34.1363C37.7447 32.9368 38.7747 31.985 40.0525 31.2809C41.3563 30.5507 42.8036 30.1857 44.3943 30.1857C45.8546 30.1857 47.1845 30.4986 48.384 31.1244C49.6096 31.7503 50.6005 32.6108 51.3567 33.706C52.113 34.8012 52.4911 36.079 52.4911 37.5393C52.4911 38.6606 52.3085 39.469 51.9435 39.9644C51.5784 40.4338 51.109 40.7337 50.5353 40.8641C49.9877 40.9684 49.414 41.0205 48.8143 41.0205H40.8739V41.6073C40.8739 42.7286 41.2911 43.6412 42.1256 44.3453C42.9861 45.0233 44.0944 45.3623 45.4504 45.3623C46.3109 45.3623 47.028 45.2319 47.6017 44.9712C48.1754 44.7104 48.6708 44.4627 49.0881 44.228C49.5053 43.9933 49.8964 43.8759 50.2615 43.8759C50.6527 43.8759 50.9917 44.0063 51.2785 44.2671C51.5654 44.5278 51.787 44.8408 51.9435 45.2058C52.0999 45.5448 52.1782 45.8447 52.1782 46.1055C52.1782 46.5488 51.8913 47.0312 51.3176 47.5527C50.77 48.0482 49.9747 48.4785 48.9316 48.8435C47.9146 49.1825 46.702 49.352 45.2939 49.352ZM40.8739 38.0478H46.5847C47.028 38.0478 47.3279 37.9826 47.4844 37.8522C47.6669 37.6958 47.7582 37.4089 47.7582 36.9917C47.7582 36.3919 47.5887 35.8573 47.2497 35.388C46.9367 34.9186 46.5195 34.5535 45.998 34.2927C45.5025 34.032 44.9419 33.9016 44.316 33.9016C43.7163 33.9016 43.1556 34.032 42.6341 34.2927C42.1126 34.5274 41.6823 34.8795 41.3433 35.3488C41.0304 35.7922 40.8739 36.3267 40.8739 36.9526V38.0478ZM58.02 49C57.316 49 56.7293 48.8566 56.2599 48.5697C55.7905 48.2568 55.5558 47.8657 55.5558 47.3963V28.1517C55.5558 26.3263 56.0382 24.7747 57.0031 23.497C57.9679 22.2192 59.2326 21.2544 60.7972 20.6025C62.3618 19.9245 64.0438 19.5855 65.8431 19.5855C66.7818 19.5855 67.7597 19.6768 68.7767 19.8593C69.7937 20.0158 70.7585 20.2765 71.6712 20.6416C72.5839 21.0067 73.301 21.476 73.8225 22.0497V47.3572C73.8225 47.7744 73.5748 48.1525 73.0793 48.4915C72.5839 48.8305 71.9711 49 71.2409 49C70.5369 49 69.9501 48.8305 69.4808 48.4915C69.0114 48.1525 68.7767 47.7744 68.7767 47.3572V24.5922C68.4377 24.3314 67.9683 24.1359 67.3685 24.0055C66.7949 23.849 66.2212 23.7708 65.6475 23.7708C64.813 23.7708 64.0046 23.9273 63.2223 24.2402C62.4661 24.527 61.8403 24.9834 61.3448 25.6092C60.8494 26.235 60.6016 27.0173 60.6016 27.9561V30.4204H64.5914C65.0347 30.4204 65.3606 30.6159 65.5693 31.0071C65.8039 31.3722 65.9213 31.7894 65.9213 32.2588C65.9213 32.7281 65.8039 33.1584 65.5693 33.5496C65.3606 33.9146 65.0347 34.0972 64.5914 34.0972H60.6016V47.3963C60.6016 47.8657 60.3409 48.2568 59.8193 48.5697C59.3239 48.8566 58.7241 49 58.02 49ZM86.8536 49.352C85.0022 49.352 83.3594 49.0261 81.9251 48.3742C80.517 47.6962 79.4087 46.7574 78.6004 45.5579C77.792 44.3323 77.3878 42.9241 77.3878 41.3335V38.0087C77.3878 36.6005 77.7659 35.3097 78.5221 34.1363C79.3044 32.9368 80.3345 31.985 81.6122 31.2809C82.9161 30.5507 84.3633 30.1857 85.954 30.1857C87.4143 30.1857 88.7442 30.4986 89.9437 31.1244C91.1693 31.7503 92.1602 32.6108 92.9165 33.706C93.6727 34.8012 94.0508 36.079 94.0508 37.5393C94.0508 38.6606 93.8683 39.469 93.5032 39.9644C93.1381 40.4338 92.6687 40.7337 92.0951 40.8641C91.5474 40.9684 90.9738 41.0205 90.374 41.0205H82.4336V41.6073C82.4336 42.7286 82.8509 43.6412 83.6853 44.3453C84.5459 45.0233 85.6541 45.3623 87.0101 45.3623C87.8706 45.3623 88.5877 45.2319 89.1614 44.9712C89.7351 44.7104 90.2306 44.4627 90.6478 44.228C91.065 43.9933 91.4562 43.8759 91.8212 43.8759C92.2124 43.8759 92.5514 44.0063 92.8382 44.2671C93.1251 44.5278 93.3467 44.8408 93.5032 45.2058C93.6597 45.5448 93.7379 45.8447 93.7379 46.1055C93.7379 46.5488 93.451 47.0312 92.8774 47.5527C92.3297 48.0482 91.5344 48.4785 90.4913 48.8435C89.4743 49.1825 88.2618 49.352 86.8536 49.352ZM82.4336 38.0478H88.1444C88.5877 38.0478 88.8876 37.9826 89.0441 37.8522C89.2266 37.6958 89.3179 37.4089 89.3179 36.9917C89.3179 36.3919 89.1484 35.8573 88.8094 35.388C88.4965 34.9186 88.0792 34.5535 87.5577 34.2927C87.0623 34.032 86.5016 33.9016 85.8758 33.9016C85.276 33.9016 84.7153 34.032 84.1938 34.2927C83.6723 34.5274 83.242 34.8795 82.903 35.3488C82.5901 35.7922 82.4336 36.3267 82.4336 36.9526V38.0478ZM104.939 49.352C102.957 49.352 101.34 49 100.088 48.2959C98.8366 47.5919 97.9109 46.6401 97.3111 45.4405C96.7113 44.2149 96.4115 42.8459 96.4115 41.3335V38.2042C96.4115 36.6918 96.6983 35.3358 97.272 34.1363C97.8718 32.9107 98.7975 31.9458 100.049 31.2418C101.327 30.5377 102.931 30.1857 104.86 30.1857C106.086 30.1857 107.168 30.3291 108.107 30.6159C109.046 30.9028 109.789 31.2809 110.336 31.7503C110.884 32.2196 111.158 32.7151 111.158 33.2366C111.158 33.5496 111.067 33.9016 110.884 34.2927C110.728 34.6578 110.493 34.9838 110.18 35.2706C109.893 35.5575 109.554 35.7009 109.163 35.7009C108.876 35.7009 108.576 35.6096 108.263 35.4271C107.976 35.2445 107.598 35.062 107.129 34.8795C106.66 34.6969 106.034 34.6057 105.251 34.6057C103.922 34.6057 102.957 34.9316 102.357 35.5835C101.757 36.2094 101.457 37.0829 101.457 38.2042V41.3335C101.457 42.4547 101.757 43.3414 102.357 43.9933C102.957 44.6191 103.935 44.932 105.291 44.932C106.099 44.932 106.725 44.8277 107.168 44.6191C107.611 44.4105 107.976 44.2149 108.263 44.0324C108.576 43.8499 108.889 43.7586 109.202 43.7586C109.671 43.7586 110.063 43.889 110.376 44.1497C110.715 44.4105 110.962 44.7365 111.119 45.1276C111.301 45.4927 111.393 45.8317 111.393 46.1446C111.393 46.6661 111.106 47.1746 110.532 47.6701C109.984 48.1655 109.215 48.5697 108.224 48.8827C107.259 49.1956 106.164 49.352 104.939 49.352ZM121.156 49C118.809 49 117.01 48.4915 115.758 47.4745C114.533 46.4575 113.92 44.8408 113.92 42.6242V23.6926C113.92 23.2232 114.194 22.8451 114.741 22.5582C115.289 22.2714 115.85 22.128 116.423 22.128C117.049 22.128 117.623 22.2714 118.144 22.5582C118.692 22.8451 118.966 23.2232 118.966 23.6926V30.4204H123.581C123.999 30.4204 124.312 30.6159 124.52 31.0071C124.755 31.3722 124.872 31.7894 124.872 32.2588C124.872 32.7281 124.755 33.1584 124.52 33.5496C124.312 33.9146 123.999 34.0972 123.581 34.0972H118.966V42.6242C118.966 43.4065 119.122 43.9542 119.435 44.2671C119.774 44.58 120.348 44.7365 121.156 44.7365H122.682C123.412 44.7365 123.947 44.9581 124.286 45.4014C124.651 45.8447 124.833 46.3271 124.833 46.8487C124.833 47.3963 124.651 47.8917 124.286 48.335C123.947 48.7783 123.412 49 122.682 49H121.156ZM129.947 26.2742C129.191 26.2742 128.539 26.0264 127.992 25.531C127.444 25.0094 127.17 24.4358 127.17 23.8099C127.17 23.1319 127.444 22.5582 127.992 22.0888C128.539 21.5934 129.191 21.3457 129.947 21.3457C130.73 21.3457 131.382 21.5934 131.903 22.0888C132.425 22.5582 132.685 23.1319 132.685 23.8099C132.685 24.4358 132.425 25.0094 131.903 25.531C131.382 26.0264 130.73 26.2742 129.947 26.2742ZM129.947 49C129.217 49 128.618 48.8305 128.148 48.4915C127.679 48.1525 127.444 47.7744 127.444 47.3572V31.985C127.444 31.5156 127.679 31.1375 128.148 30.8506C128.618 30.5638 129.217 30.4204 129.947 30.4204C130.651 30.4204 131.251 30.5638 131.747 30.8506C132.242 31.1375 132.49 31.5156 132.49 31.985V47.3572C132.49 47.7744 132.242 48.1525 131.747 48.4915C131.251 48.8305 130.651 49 129.947 49ZM143.776 49.4303C143.255 49.4303 142.772 49.352 142.329 49.1956C141.886 49.0391 141.599 48.8175 141.468 48.5306L134.78 33.0411C134.728 32.9628 134.675 32.8585 134.623 32.7281C134.597 32.5717 134.584 32.4413 134.584 32.337C134.584 31.9458 134.767 31.5938 135.132 31.2809C135.523 30.9419 135.979 30.6811 136.501 30.4986C137.022 30.29 137.505 30.1857 137.948 30.1857C138.261 30.1857 138.548 30.2509 138.809 30.3812C139.095 30.5116 139.291 30.7333 139.395 31.0462L143.776 42.3896L148.118 31.1244C148.222 30.7854 148.405 30.5507 148.665 30.4204C148.926 30.2639 149.226 30.1857 149.565 30.1857C149.904 30.1857 150.334 30.29 150.856 30.4986C151.404 30.6811 151.886 30.9419 152.303 31.2809C152.72 31.6199 152.929 31.985 152.929 32.3761C152.929 32.5065 152.916 32.6238 152.89 32.7281C152.864 32.8324 152.825 32.9368 152.773 33.0411L146.045 48.5306C145.914 48.8175 145.628 49.0391 145.184 49.1956C144.741 49.352 144.272 49.4303 143.776 49.4303ZM163.709 49.352C161.857 49.352 160.214 49.0261 158.78 48.3742C157.372 47.6962 156.264 46.7574 155.455 45.5579C154.647 44.3323 154.243 42.9241 154.243 41.3335V38.0087C154.243 36.6005 154.621 35.3097 155.377 34.1363C156.159 32.9368 157.189 31.985 158.467 31.2809C159.771 30.5507 161.218 30.1857 162.809 30.1857C164.269 30.1857 165.599 30.4986 166.799 31.1244C168.024 31.7503 169.015 32.6108 169.771 33.706C170.528 34.8012 170.906 36.079 170.906 37.5393C170.906 38.6606 170.723 39.469 170.358 39.9644C169.993 40.4338 169.524 40.7337 168.95 40.8641C168.402 40.9684 167.829 41.0205 167.229 41.0205H159.289V41.6073C159.289 42.7286 159.706 43.6412 160.54 44.3453C161.401 45.0233 162.509 45.3623 163.865 45.3623C164.726 45.3623 165.443 45.2319 166.016 44.9712C166.59 44.7104 167.086 44.4627 167.503 44.228C167.92 43.9933 168.311 43.8759 168.676 43.8759C169.067 43.8759 169.406 44.0063 169.693 44.2671C169.98 44.5278 170.202 44.8408 170.358 45.2058C170.515 45.5448 170.593 45.8447 170.593 46.1055C170.593 46.5488 170.306 47.0312 169.732 47.5527C169.185 48.0482 168.389 48.4785 167.346 48.8435C166.329 49.1825 165.117 49.352 163.709 49.352ZM159.289 38.0478H164.999C165.443 38.0478 165.743 37.9826 165.899 37.8522C166.082 37.6958 166.173 37.4089 166.173 36.9917C166.173 36.3919 166.003 35.8573 165.664 35.388C165.351 34.9186 164.934 34.5535 164.413 34.2927C163.917 34.032 163.357 33.9016 162.731 33.9016C162.131 33.9016 161.57 34.032 161.049 34.2927C160.527 34.5274 160.097 34.8795 159.758 35.3488C159.445 35.7922 159.289 36.3267 159.289 36.9526V38.0478Z" fill="black"/>
<path d="M181.402 49.2738C179.733 49.2738 178.299 49.0261 177.1 48.5306C175.9 48.0091 174.974 47.4224 174.323 46.7704C173.697 46.0924 173.384 45.5188 173.384 45.0494C173.384 44.8408 173.436 44.6191 173.54 44.3844C173.671 44.1497 173.827 43.9672 174.01 43.8368C174.192 43.6804 174.375 43.6021 174.557 43.6021C174.818 43.6021 175.079 43.7716 175.34 44.1106C175.626 44.4235 175.991 44.8017 176.435 45.245C176.904 45.6622 177.517 46.0403 178.273 46.3793C179.029 46.6922 180.02 46.8487 181.246 46.8487C182.471 46.8487 183.515 46.6531 184.375 46.2619C185.236 45.8447 185.901 45.245 186.37 44.4627C186.839 43.6543 187.074 42.6503 187.074 41.4508C187.074 40.1991 186.839 39.1952 186.37 38.4389C185.901 37.6827 185.275 37.0569 184.492 36.5614C183.736 36.066 182.902 35.6487 181.989 35.3097C181.076 34.9707 180.151 34.6187 179.212 34.2536C178.299 33.8886 177.452 33.4452 176.669 32.9237C175.887 32.3761 175.261 31.672 174.792 30.8115C174.323 29.9249 174.088 28.8036 174.088 27.4476C174.088 26.0395 174.349 24.8791 174.87 23.9664C175.392 23.0276 176.057 22.2975 176.865 21.7759C177.699 21.2544 178.599 20.8893 179.564 20.6807C180.529 20.446 181.468 20.3287 182.38 20.3287C183.11 20.3287 183.854 20.3939 184.61 20.5242C185.392 20.6286 186.109 20.785 186.761 20.9936C187.413 21.2022 187.935 21.463 188.326 21.7759C188.743 22.0628 188.952 22.3887 188.952 22.7538C188.952 22.9103 188.899 23.1058 188.795 23.3405C188.717 23.5491 188.6 23.7447 188.443 23.9273C188.287 24.1098 188.078 24.2011 187.817 24.2011C187.583 24.2011 187.257 24.0837 186.839 23.849C186.422 23.5883 185.848 23.3405 185.118 23.1058C184.414 22.8451 183.488 22.7147 182.341 22.7147C181.402 22.7147 180.49 22.8451 179.603 23.1058C178.743 23.3666 178.038 23.836 177.491 24.514C176.943 25.1659 176.669 26.0655 176.669 27.2129C176.669 28.256 176.904 29.1035 177.373 29.7554C177.869 30.3812 178.495 30.8897 179.251 31.2809C180.033 31.672 180.881 32.0371 181.793 32.3761C182.706 32.689 183.619 33.0541 184.532 33.4713C185.47 33.8625 186.318 34.371 187.074 34.9968C187.856 35.5966 188.482 36.3919 188.952 37.3828C189.421 38.3737 189.656 39.6515 189.656 41.2161C189.656 43.0676 189.304 44.593 188.6 45.7926C187.895 46.966 186.918 47.8396 185.666 48.4133C184.44 48.987 183.019 49.2738 181.402 49.2738ZM201.474 49.2738C199.831 49.2738 198.371 48.9609 197.093 48.335C195.841 47.7092 194.85 46.8487 194.12 45.7535C193.416 44.6322 193.064 43.3283 193.064 41.8419V37.5002C193.064 36.1963 193.403 34.9968 194.081 33.9016C194.759 32.7803 195.659 31.8937 196.78 31.2418C197.927 30.5899 199.179 30.2639 200.535 30.2639C201.839 30.2639 203.038 30.5768 204.134 31.2027C205.255 31.8024 206.155 32.6369 206.833 33.706C207.511 34.7752 207.85 36.0138 207.85 37.4219C207.85 38.4129 207.68 39.13 207.341 39.5733C207.002 40.0166 206.572 40.2904 206.05 40.3947C205.555 40.4729 205.02 40.512 204.447 40.512H195.607V41.9593C195.607 43.5239 196.167 44.7625 197.289 45.6752C198.41 46.5879 199.831 47.0442 201.552 47.0442C202.595 47.0442 203.404 46.9139 203.977 46.6531C204.551 46.3923 204.994 46.1316 205.307 45.8708C205.646 45.61 205.959 45.4796 206.246 45.4796C206.455 45.4796 206.637 45.5579 206.794 45.7143C206.976 45.8447 207.106 46.0012 207.185 46.1837C207.289 46.3663 207.341 46.5358 207.341 46.6922C207.341 46.9791 207.106 47.3311 206.637 47.7483C206.168 48.1655 205.49 48.5306 204.603 48.8435C203.716 49.1304 202.673 49.2738 201.474 49.2738ZM195.607 38.6345H203.43C204.212 38.6345 204.733 38.5563 204.994 38.3998C205.255 38.2173 205.385 37.8522 205.385 37.3046C205.385 36.4701 205.177 35.6878 204.76 34.9577C204.342 34.2015 203.769 33.5887 203.038 33.1193C202.308 32.6238 201.461 32.3761 200.496 32.3761C199.609 32.3761 198.788 32.5978 198.032 33.0411C197.302 33.4844 196.715 34.0581 196.272 34.7621C195.828 35.4662 195.607 36.2615 195.607 37.1481V38.6345ZM213.248 49C212.909 49 212.609 48.8957 212.348 48.6871C212.113 48.4785 211.996 48.2438 211.996 47.983V20.1331C211.996 19.8202 212.113 19.5855 212.348 19.429C212.609 19.2465 212.909 19.1552 213.248 19.1552C213.613 19.1552 213.913 19.2465 214.147 19.429C214.408 19.5855 214.539 19.8202 214.539 20.1331V47.983C214.539 48.2438 214.408 48.4785 214.147 48.6871C213.913 48.8957 213.613 49 213.248 49ZM221.032 49C220.693 49 220.406 48.9087 220.171 48.7262C219.937 48.5437 219.819 48.309 219.819 48.0221V26.3524C219.819 25.0225 220.132 23.8229 220.758 22.7538C221.41 21.6586 222.258 20.785 223.301 20.1331C224.37 19.4812 225.53 19.1552 226.782 19.1552H227.76C228.125 19.1552 228.399 19.2726 228.581 19.5073C228.764 19.7419 228.855 20.0158 228.855 20.3287C228.855 20.6155 228.764 20.8763 228.581 21.111C228.399 21.3457 228.125 21.463 227.76 21.463H227.095C226.208 21.463 225.4 21.6847 224.67 22.128C223.966 22.5713 223.405 23.145 222.988 23.849C222.597 24.5531 222.388 25.3354 222.362 26.1959V30.4986H227.955C228.242 30.4986 228.464 30.6029 228.62 30.8115C228.777 31.0201 228.855 31.2678 228.855 31.5547C228.855 31.8155 228.777 32.0632 228.62 32.2979C228.464 32.5065 228.242 32.6108 227.955 32.6108H222.362V48.0221C222.362 48.309 222.232 48.5437 221.971 48.7262C221.71 48.9087 221.397 49 221.032 49Z" fill="#E5261F"/>
</svg>
