<svg width="240" height="64" viewBox="0 0 240 64" fill="none" xmlns="http://www.w3.org/2000/svg">
<path d="M18.7158 49.2738C17.0469 49.2738 15.6127 49.0261 14.4132 48.5306C13.2137 48.0091 12.2879 47.4224 11.636 46.7704C11.0102 46.0924 10.6973 45.5188 10.6973 45.0494C10.6973 44.8408 10.7494 44.6191 10.8537 44.3844C10.9841 44.1497 11.1406 43.9672 11.3231 43.8368C11.5056 43.6804 11.6882 43.6021 11.8707 43.6021C12.1315 43.6021 12.3922 43.7716 12.653 44.1106C12.9399 44.4235 13.3049 44.8017 13.7482 45.245C14.2176 45.6622 14.8304 46.0403 15.5866 46.3793C16.3429 46.6922 17.3338 46.8487 18.5594 46.8487C19.785 46.8487 20.8281 46.6531 21.6886 46.2619C22.5491 45.8447 23.2141 45.245 23.6835 44.4627C24.1528 43.6543 24.3875 42.6503 24.3875 41.4508C24.3875 40.1991 24.1528 39.1952 23.6835 38.4389C23.2141 37.6827 22.5882 37.0569 21.8059 36.5614C21.0497 36.066 20.2153 35.6487 19.3026 35.3097C18.3899 34.9707 17.4642 34.6187 16.5254 34.2536C15.6127 33.8886 14.7652 33.4452 13.9829 32.9237C13.2006 32.3761 12.5748 31.672 12.1054 30.8115C11.636 29.9249 11.4013 28.8036 11.4013 27.4476C11.4013 26.0395 11.6621 24.8791 12.1836 23.9664C12.7052 23.0276 13.3701 22.2975 14.1785 21.7759C15.013 21.2544 15.9126 20.8893 16.8774 20.6807C17.8423 20.446 18.781 20.3287 19.6937 20.3287C20.4239 20.3287 21.1671 20.3939 21.9233 20.5242C22.7056 20.6286 23.4227 20.785 24.0746 20.9936C24.7265 21.2022 25.2481 21.463 25.6392 21.7759C26.0564 22.0628 26.265 22.3887 26.265 22.7538C26.265 22.9103 26.2129 23.1058 26.1086 23.3405C26.0304 23.5491 25.913 23.7447 25.7566 23.9273C25.6001 24.1098 25.3915 24.2011 25.1307 24.2011C24.896 24.2011 24.5701 24.0837 24.1528 23.849C23.7356 23.5883 23.1619 23.3405 22.4318 23.1058C21.7277 22.8451 20.802 22.7147 19.6546 22.7147C18.7158 22.7147 17.8032 22.8451 16.9165 23.1058C16.056 23.3666 15.3519 23.836 14.8043 24.514C14.2567 25.1659 13.9829 26.0655 13.9829 27.2129C13.9829 28.256 14.2176 29.1035 14.687 29.7554C15.1824 30.3812 15.8083 30.8897 16.5645 31.2809C17.3468 31.672 18.1943 32.0371 19.107 32.3761C20.0197 32.689 20.9324 33.0541 21.845 33.4713C22.7838 33.8625 23.6313 34.371 24.3875 34.9968C25.1698 35.5966 25.7957 36.3919 26.265 37.3828C26.7344 38.3737 26.9691 39.6515 26.9691 41.2161C26.9691 43.0676 26.6171 44.593 25.913 45.7926C25.2089 46.966 24.2311 47.8396 22.9794 48.4133C21.7538 48.987 20.3326 49.2738 18.7158 49.2738ZM37.1836 49C35.1757 49 33.6372 48.5437 32.5681 47.631C31.4989 46.7183 30.9644 45.258 30.9644 43.2501V22.6756C30.9644 22.3627 31.0947 22.128 31.3555 21.9715C31.6423 21.789 31.9292 21.6977 32.216 21.6977C32.555 21.6977 32.8549 21.789 33.1157 21.9715C33.3764 22.128 33.5068 22.3627 33.5068 22.6756V30.4986H38.5918C38.8526 30.4986 39.0612 30.6029 39.2176 30.8115C39.3741 31.0201 39.4523 31.2678 39.4523 31.5547C39.4523 31.8415 39.3741 32.0893 39.2176 32.2979C39.0612 32.5065 38.8526 32.6108 38.5918 32.6108H33.5068V43.2501C33.5068 44.5278 33.7806 45.4275 34.3282 45.949C34.8759 46.4445 35.8277 46.6922 37.1836 46.6922H38.2789C38.6439 46.6922 38.9177 46.8096 39.1003 47.0442C39.3089 47.2529 39.4132 47.5136 39.4132 47.8265C39.4132 48.1395 39.3089 48.4133 39.1003 48.648C38.9177 48.8827 38.6439 49 38.2789 49H37.1836ZM46.6855 49.2738C45.1992 49.2738 43.9345 48.8566 42.8914 48.0221C41.8744 47.1616 41.3659 45.8578 41.3659 44.1106C41.3659 42.6764 41.744 41.5812 42.5002 40.825C43.2825 40.0427 44.3517 39.5081 45.7077 39.2212C47.0897 38.9083 48.6804 38.7519 50.4797 38.7519H52.4746V37.8522C52.4746 36.9917 52.3181 36.1572 52.0052 35.3488C51.7183 34.5144 51.2359 33.8364 50.5579 33.3149C49.906 32.7673 49.0064 32.4935 47.859 32.4935C46.9985 32.4935 46.2944 32.5847 45.7468 32.7673C45.1992 32.9498 44.7689 33.1454 44.456 33.354C44.1431 33.5365 43.8823 33.6278 43.6737 33.6278C43.3608 33.6278 43.1 33.4713 42.8914 33.1584C42.7088 32.8455 42.6176 32.5586 42.6176 32.2979C42.6176 31.9328 42.8914 31.6068 43.439 31.32C43.9866 31.0071 44.6646 30.7594 45.473 30.5768C46.3074 30.3682 47.1288 30.2639 47.9372 30.2639C49.6844 30.2639 51.0664 30.629 52.0834 31.3591C53.1265 32.0632 53.8697 32.9889 54.313 34.1363C54.7824 35.2837 55.017 36.5093 55.017 37.8131V47.983C55.017 48.2699 54.8997 48.5176 54.665 48.7262C54.4564 48.9087 54.1565 49 53.7654 49C53.4524 49 53.1656 48.9087 52.9048 48.7262C52.6701 48.5176 52.5528 48.2699 52.5528 47.983V46.2619C51.9009 47.0442 51.0925 47.7483 50.1277 48.3742C49.1628 48.9739 48.0155 49.2738 46.6855 49.2738ZM47.3114 47.1225C48.1719 47.1225 48.9933 46.9008 49.7756 46.4575C50.5579 46.0142 51.1968 45.4796 51.6923 44.8538C52.2138 44.2019 52.4746 43.5891 52.4746 43.0154V40.512H50.8317C49.6583 40.512 48.537 40.5903 47.4678 40.7467C46.4248 40.8771 45.5642 41.177 44.8863 41.6464C44.2343 42.1158 43.9084 42.8589 43.9084 43.8759C43.9084 44.9972 44.2343 45.8186 44.8863 46.3402C45.5642 46.8617 46.3726 47.1225 47.3114 47.1225ZM58.7971 58.0747C58.4582 58.0747 58.1713 57.9834 57.9366 57.8009C57.7019 57.6444 57.5846 57.3576 57.5846 56.9404C57.5846 56.6274 57.6498 56.3536 57.7802 56.1189C57.9105 55.8842 58.1192 55.7669 58.406 55.7669C59.0318 55.7669 59.6316 55.5713 60.2053 55.1802C60.779 54.789 61.3136 54.2284 61.809 53.4982C62.3045 52.7942 62.7478 51.9858 63.1389 51.0731C63.5301 50.1865 63.843 49.2347 64.0777 48.2177L57.6628 31.8676C57.6107 31.7111 57.5846 31.5808 57.5846 31.4765C57.5846 31.2418 57.6628 31.0462 57.8193 30.8897C58.0018 30.7072 58.2104 30.5638 58.4451 30.4595C58.7059 30.3291 58.9406 30.2639 59.1492 30.2639C59.3578 30.2639 59.5403 30.316 59.6968 30.4204C59.8793 30.4986 59.9967 30.629 60.0488 30.8115L65.4076 45.2058L70.4534 30.8115C70.5317 30.629 70.649 30.4986 70.8055 30.4204C70.9619 30.316 71.1314 30.2639 71.314 30.2639C71.5226 30.2639 71.7442 30.316 71.9789 30.4204C72.2397 30.5247 72.4483 30.6681 72.6048 30.8506C72.7873 31.0332 72.8786 31.2548 72.8786 31.5156C72.8786 31.646 72.8525 31.7633 72.8003 31.8676L66.7375 48.2568C66.3464 49.2999 65.9291 50.3951 65.4858 51.5425C65.0425 52.6899 64.521 53.746 63.9212 54.7108C63.3475 55.7017 62.6435 56.5101 61.809 57.1359C60.9746 57.7618 59.9706 58.0747 58.7971 58.0747Z" fill="#E5261F"/>
<path d="M91.4943 49.1956C91.1553 49.1956 90.8163 49.0913 90.4773 48.8827C90.1644 48.674 89.9166 48.3742 89.7341 47.983L84.1798 37.1873H80.8941V47.3572C80.8941 47.9048 80.6333 48.322 80.1118 48.6088C79.5903 48.8696 79.0035 49 78.3516 49C77.7258 49 77.139 48.8696 76.5914 48.6088C76.0699 48.322 75.8091 47.9048 75.8091 47.3572V22.0106C75.8091 21.5673 75.9526 21.1892 76.2394 20.8763C76.5523 20.5634 76.9565 20.4069 77.452 20.4069H85.1967C86.9178 20.4069 88.4694 20.6546 89.8514 21.1501C91.2596 21.6455 92.3809 22.493 93.2153 23.6926C94.0498 24.866 94.467 26.4958 94.467 28.5819C94.467 30.0944 94.2454 31.3852 93.8021 32.4543C93.3588 33.4974 92.746 34.3449 91.9637 34.9968C91.2074 35.6227 90.3339 36.092 89.3429 36.405L94.5061 45.9099C94.5583 46.0142 94.5974 46.1316 94.6235 46.2619C94.6496 46.3663 94.6626 46.4575 94.6626 46.5358C94.6626 46.953 94.5061 47.3702 94.1932 47.7874C93.8803 48.2047 93.4761 48.5437 92.9806 48.8044C92.5113 49.0652 92.0158 49.1956 91.4943 49.1956ZM80.8941 33.1975H85.1967C86.4745 33.1975 87.4915 32.8846 88.2477 32.2588C89.0039 31.6329 89.3821 30.5638 89.3821 29.0513C89.3821 27.4867 89.0039 26.4045 88.2477 25.8048C87.4915 25.1789 86.4745 24.866 85.1967 24.866H80.8941V33.1975ZM106.029 49.352C104.178 49.352 102.535 49.0261 101.101 48.3742C99.6925 47.6962 98.5843 46.7574 97.7759 45.5579C96.9675 44.3323 96.5633 42.9241 96.5633 41.3335V38.0087C96.5633 36.6005 96.9414 35.3097 97.6977 34.1363C98.48 32.9368 99.51 31.985 100.788 31.2809C102.092 30.5507 103.539 30.1857 105.13 30.1857C106.59 30.1857 107.92 30.4986 109.119 31.1244C110.345 31.7503 111.336 32.6108 112.092 33.706C112.848 34.8012 113.226 36.079 113.226 37.5393C113.226 38.6606 113.044 39.469 112.679 39.9644C112.314 40.4338 111.844 40.7337 111.271 40.8641C110.723 40.9684 110.149 41.0205 109.55 41.0205H101.609V41.6073C101.609 42.7286 102.026 43.6412 102.861 44.3453C103.721 45.0233 104.83 45.3623 106.186 45.3623C107.046 45.3623 107.763 45.2319 108.337 44.9712C108.911 44.7104 109.406 44.4627 109.823 44.228C110.241 43.9933 110.632 43.8759 110.997 43.8759C111.388 43.8759 111.727 44.0063 112.014 44.2671C112.301 44.5278 112.522 44.8408 112.679 45.2058C112.835 45.5448 112.913 45.8447 112.913 46.1055C112.913 46.5488 112.627 47.0312 112.053 47.5527C111.505 48.0482 110.71 48.4785 109.667 48.8435C108.65 49.1825 107.437 49.352 106.029 49.352ZM101.609 38.0478H107.32C107.763 38.0478 108.063 37.9826 108.22 37.8522C108.402 37.6958 108.493 37.4089 108.493 36.9917C108.493 36.3919 108.324 35.8573 107.985 35.388C107.672 34.9186 107.255 34.5535 106.733 34.2927C106.238 34.032 105.677 33.9016 105.051 33.9016C104.452 33.9016 103.891 34.032 103.369 34.2927C102.848 34.5274 102.418 34.8795 102.079 35.3488C101.766 35.7922 101.609 36.3267 101.609 36.9526V38.0478ZM118.755 49C118.051 49 117.465 48.8566 116.995 48.5697C116.526 48.2568 116.291 47.8657 116.291 47.3963V28.1517C116.291 26.3263 116.773 24.7747 117.738 23.497C118.703 22.2192 119.968 21.2544 121.532 20.6025C123.097 19.9245 124.779 19.5855 126.578 19.5855C127.517 19.5855 128.495 19.6768 129.512 19.8593C130.529 20.0158 131.494 20.2765 132.406 20.6416C133.319 21.0067 134.036 21.476 134.558 22.0497V47.3572C134.558 47.7744 134.31 48.1525 133.815 48.4915C133.319 48.8305 132.706 49 131.976 49C131.272 49 130.685 48.8305 130.216 48.4915C129.747 48.1525 129.512 47.7744 129.512 47.3572V24.5922C129.173 24.3314 128.704 24.1359 128.104 24.0055C127.53 23.849 126.956 23.7708 126.383 23.7708C125.548 23.7708 124.74 23.9273 123.958 24.2402C123.201 24.527 122.576 24.9834 122.08 25.6092C121.585 26.235 121.337 27.0173 121.337 27.9561V30.4204H125.327C125.77 30.4204 126.096 30.6159 126.305 31.0071C126.539 31.3722 126.657 31.7894 126.657 32.2588C126.657 32.7281 126.539 33.1584 126.305 33.5496C126.096 33.9146 125.77 34.0972 125.327 34.0972H121.337V47.3963C121.337 47.8657 121.076 48.2568 120.555 48.5697C120.059 48.8566 119.459 49 118.755 49ZM147.589 49.352C145.737 49.352 144.095 49.0261 142.66 48.3742C141.252 47.6962 140.144 46.7574 139.336 45.5579C138.527 44.3323 138.123 42.9241 138.123 41.3335V38.0087C138.123 36.6005 138.501 35.3097 139.257 34.1363C140.04 32.9368 141.07 31.985 142.347 31.2809C143.651 30.5507 145.099 30.1857 146.689 30.1857C148.15 30.1857 149.479 30.4986 150.679 31.1244C151.905 31.7503 152.896 32.6108 153.652 33.706C154.408 34.8012 154.786 36.079 154.786 37.5393C154.786 38.6606 154.604 39.469 154.238 39.9644C153.873 40.4338 153.404 40.7337 152.83 40.8641C152.283 40.9684 151.709 41.0205 151.109 41.0205H143.169V41.6073C143.169 42.7286 143.586 43.6412 144.421 44.3453C145.281 45.0233 146.389 45.3623 147.745 45.3623C148.606 45.3623 149.323 45.2319 149.897 44.9712C150.47 44.7104 150.966 44.4627 151.383 44.228C151.8 43.9933 152.191 43.8759 152.557 43.8759C152.948 43.8759 153.287 44.0063 153.574 44.2671C153.86 44.5278 154.082 44.8408 154.238 45.2058C154.395 45.5448 154.473 45.8447 154.473 46.1055C154.473 46.5488 154.186 47.0312 153.613 47.5527C153.065 48.0482 152.27 48.4785 151.227 48.8435C150.21 49.1825 148.997 49.352 147.589 49.352ZM143.169 38.0478H148.88C149.323 38.0478 149.623 37.9826 149.779 37.8522C149.962 37.6958 150.053 37.4089 150.053 36.9917C150.053 36.3919 149.884 35.8573 149.545 35.388C149.232 34.9186 148.815 34.5535 148.293 34.2927C147.798 34.032 147.237 33.9016 146.611 33.9016C146.011 33.9016 145.451 34.032 144.929 34.2927C144.408 34.5274 143.977 34.8795 143.638 35.3488C143.325 35.7922 143.169 36.3267 143.169 36.9526V38.0478ZM165.674 49.352C163.692 49.352 162.075 49 160.824 48.2959C159.572 47.5919 158.646 46.6401 158.046 45.4405C157.447 44.2149 157.147 42.8459 157.147 41.3335V38.2042C157.147 36.6918 157.434 35.3358 158.007 34.1363C158.607 32.9107 159.533 31.9458 160.784 31.2418C162.062 30.5377 163.666 30.1857 165.596 30.1857C166.821 30.1857 167.903 30.3291 168.842 30.6159C169.781 30.9028 170.524 31.2809 171.072 31.7503C171.619 32.2196 171.893 32.7151 171.893 33.2366C171.893 33.5496 171.802 33.9016 171.619 34.2927C171.463 34.6578 171.228 34.9838 170.915 35.2706C170.628 35.5575 170.289 35.7009 169.898 35.7009C169.611 35.7009 169.312 35.6096 168.999 35.4271C168.712 35.2445 168.334 35.062 167.864 34.8795C167.395 34.6969 166.769 34.6057 165.987 34.6057C164.657 34.6057 163.692 34.9316 163.092 35.5835C162.492 36.2094 162.193 37.0829 162.193 38.2042V41.3335C162.193 42.4547 162.492 43.3414 163.092 43.9933C163.692 44.6191 164.67 44.932 166.026 44.932C166.834 44.932 167.46 44.8277 167.903 44.6191C168.347 44.4105 168.712 44.2149 168.999 44.0324C169.312 43.8499 169.624 43.7586 169.937 43.7586C170.407 43.7586 170.798 43.889 171.111 44.1497C171.45 44.4105 171.698 44.7365 171.854 45.1276C172.037 45.4927 172.128 45.8317 172.128 46.1446C172.128 46.6661 171.841 47.1746 171.267 47.6701C170.72 48.1655 169.95 48.5697 168.959 48.8827C167.995 49.1956 166.899 49.352 165.674 49.352ZM181.892 49C179.545 49 177.745 48.4915 176.494 47.4745C175.268 46.4575 174.655 44.8408 174.655 42.6242V23.6926C174.655 23.2232 174.929 22.8451 175.477 22.5582C176.024 22.2714 176.585 22.128 177.159 22.128C177.784 22.128 178.358 22.2714 178.88 22.5582C179.427 22.8451 179.701 23.2232 179.701 23.6926V30.4204H184.317C184.734 30.4204 185.047 30.6159 185.255 31.0071C185.49 31.3722 185.608 31.7894 185.608 32.2588C185.608 32.7281 185.49 33.1584 185.255 33.5496C185.047 33.9146 184.734 34.0972 184.317 34.0972H179.701V42.6242C179.701 43.4065 179.858 43.9542 180.171 44.2671C180.51 44.58 181.083 44.7365 181.892 44.7365H183.417C184.147 44.7365 184.682 44.9581 185.021 45.4014C185.386 45.8447 185.568 46.3271 185.568 46.8487C185.568 47.3963 185.386 47.8917 185.021 48.335C184.682 48.7783 184.147 49 183.417 49H181.892ZM190.683 26.2742C189.926 26.2742 189.275 26.0264 188.727 25.531C188.179 25.0094 187.906 24.4358 187.906 23.8099C187.906 23.1319 188.179 22.5582 188.727 22.0888C189.275 21.5934 189.926 21.3457 190.683 21.3457C191.465 21.3457 192.117 21.5934 192.638 22.0888C193.16 22.5582 193.421 23.1319 193.421 23.8099C193.421 24.4358 193.16 25.0094 192.638 25.531C192.117 26.0264 191.465 26.2742 190.683 26.2742ZM190.683 49C189.953 49 189.353 48.8305 188.883 48.4915C188.414 48.1525 188.179 47.7744 188.179 47.3572V31.985C188.179 31.5156 188.414 31.1375 188.883 30.8506C189.353 30.5638 189.953 30.4204 190.683 30.4204C191.387 30.4204 191.987 30.5638 192.482 30.8506C192.977 31.1375 193.225 31.5156 193.225 31.985V47.3572C193.225 47.7744 192.977 48.1525 192.482 48.4915C191.987 48.8305 191.387 49 190.683 49ZM204.511 49.4303C203.99 49.4303 203.507 49.352 203.064 49.1956C202.621 49.0391 202.334 48.8175 202.204 48.5306L195.515 33.0411C195.463 32.9628 195.411 32.8585 195.358 32.7281C195.332 32.5717 195.319 32.4413 195.319 32.337C195.319 31.9458 195.502 31.5938 195.867 31.2809C196.258 30.9419 196.714 30.6811 197.236 30.4986C197.758 30.29 198.24 30.1857 198.683 30.1857C198.996 30.1857 199.283 30.2509 199.544 30.3812C199.831 30.5116 200.026 30.7333 200.131 31.0462L204.511 42.3896L208.853 31.1244C208.957 30.7854 209.14 30.5507 209.401 30.4204C209.662 30.2639 209.961 30.1857 210.3 30.1857C210.639 30.1857 211.07 30.29 211.591 30.4986C212.139 30.6811 212.621 30.9419 213.038 31.2809C213.456 31.6199 213.664 31.985 213.664 32.3761C213.664 32.5065 213.651 32.6238 213.625 32.7281C213.599 32.8324 213.56 32.9368 213.508 33.0411L206.78 48.5306C206.65 48.8175 206.363 49.0391 205.92 49.1956C205.476 49.352 205.007 49.4303 204.511 49.4303ZM224.444 49.352C222.592 49.352 220.95 49.0261 219.515 48.3742C218.107 47.6962 216.999 46.7574 216.191 45.5579C215.382 44.3323 214.978 42.9241 214.978 41.3335V38.0087C214.978 36.6005 215.356 35.3097 216.112 34.1363C216.895 32.9368 217.925 31.985 219.202 31.2809C220.506 30.5507 221.954 30.1857 223.544 30.1857C225.005 30.1857 226.334 30.4986 227.534 31.1244C228.76 31.7503 229.75 32.6108 230.507 33.706C231.263 34.8012 231.641 36.079 231.641 37.5393C231.641 38.6606 231.459 39.469 231.093 39.9644C230.728 40.4338 230.259 40.7337 229.685 40.8641C229.138 40.9684 228.564 41.0205 227.964 41.0205H220.024V41.6073C220.024 42.7286 220.441 43.6412 221.276 44.3453C222.136 45.0233 223.244 45.3623 224.6 45.3623C225.461 45.3623 226.178 45.2319 226.752 44.9712C227.325 44.7104 227.821 44.4627 228.238 44.228C228.655 43.9933 229.046 43.8759 229.411 43.8759C229.803 43.8759 230.142 44.0063 230.428 44.2671C230.715 44.5278 230.937 44.8408 231.093 45.2058C231.25 45.5448 231.328 45.8447 231.328 46.1055C231.328 46.5488 231.041 47.0312 230.468 47.5527C229.92 48.0482 229.125 48.4785 228.082 48.8435C227.065 49.1825 225.852 49.352 224.444 49.352ZM220.024 38.0478H225.735C226.178 38.0478 226.478 37.9826 226.634 37.8522C226.817 37.6958 226.908 37.4089 226.908 36.9917C226.908 36.3919 226.739 35.8573 226.4 35.388C226.087 34.9186 225.669 34.5535 225.148 34.2927C224.652 34.032 224.092 33.9016 223.466 33.9016C222.866 33.9016 222.306 34.032 221.784 34.2927C221.263 34.5274 220.832 34.8795 220.493 35.3488C220.18 35.7922 220.024 36.3267 220.024 36.9526V38.0478Z" fill="black"/>
</svg>
